<svg xmlns="http://www.w3.org/2000/svg" width="70" height="54" viewBox="0 0 70 54"><g><g><g><path fill="#df2233" d="M14.765 26.115c.762-2.214 1.791-4.284 3.29-6.11 2.622-3.192 5.942-5.218 10.075-5.8 2.479-.35 4.887.11 7.185 1.034.906.365 1.708.419 2.66.158 7.363-2.017 13.167 1.606 16.325 7.18.634 1.12 1.116 2.306 1.493 3.534-.104.174-.283.178-.454.195-.189.018-.379.01-.569.01-12.993 0-25.986.002-38.98-.005-.346 0-.732.116-1.025-.196z"/></g><g><path fill="#df2233" d="M54.54 41.057c-4.044 7.887-10.53 12.219-19.453 12.192-8.855-.027-15.287-4.363-19.297-12.192.114-.16.29-.169.462-.183.19-.016.38-.01.57-.01 12.228 0 24.458 0 36.687.005.348 0 .732-.108 1.032.188z"/></g><g><path fill="#f78d00" d="M54.54 41.057c-.171-.007-.344-.02-.516-.02H16.306c-.172 0-.345.013-.517.02-2.707-.005-5.416-.063-8.122 0C3.87 41.142.686 38.4.115 34.93c-.82-4.989 2.895-8.66 6.89-8.78 2.584-.077 5.173-.028 7.76-.036.206.009.413.024.62.024h39.79c.206 0 .412-.018.618-.028 2.19.005 4.38.058 6.568.005 3.747-.09 7 2.627 7.544 6.248.745 4.954-3.016 8.626-7.14 8.672-2.741.03-5.483.015-8.224.02z"/></g><g><path fill="#3e9e4e" d="M35.892 11.403c.064-3.199 1.683-5.48 4.247-7.225 2.441-1.662 5.189-2.395 8.096-2.655 2.006-.179 4.031-.18 6.012-.61.067-.015.136-.022.203-.04.86-.222.851-.224.65.661-1.175 5.178-4.298 8.673-9.298 10.524-1.538.57-3.154.844-4.765 1.129-1.45.256-2.848.67-4.118 1.431-.281.169-.331.036-.421-.181-.403-.978-.585-1.995-.606-3.034z"/></g><g><path fill="#3e9e4e" d="M34.958 27.692h27.45c2.898.001 5.234 1.814 5.85 4.609.777 3.525-1.641 6.74-4.994 7.11-.43.048-.858.072-1.289.072H7.647c-2.89 0-5.188-1.75-5.875-4.462-.948-3.745 1.849-7.325 5.737-7.327 9.15-.005 18.3-.002 27.45-.002z"/></g><g><path fill="#fff" d="M41.93 33.643c0-1.008-.002-2.016.002-3.024 0-.16-.06-.374.222-.365 1.222.04 2.451-.12 3.665.09 1.067.184 1.688.854 1.86 1.919.154.956-.33 1.954-1.228 2.388-.41.198-.36.353-.096.61.307.3.687.383 1.093.366.245-.01.358.071.33.319-.002.016-.001.034 0 .05.047 1.077-.24 1.31-1.305 1.006-.884-.251-1.47-.852-1.85-1.668-.14-.302-.697-.493-.979-.347-.143.074-.099.204-.1.314-.006.445-.014.89.002 1.333.01.263-.082.35-.352.364-1.265.07-1.264.08-1.264-1.15v-2.205z"/></g><g><path fill="#fff" d="M5.211 33.578c0-.975.01-1.95-.006-2.924-.005-.3.062-.41.395-.414 1.396-.018 1.386-.031 1.401 1.362.005.454-.205 1.038.1 1.326.278.261.857.071 1.302.074 1.297.01 1.297.003 1.297-1.305v-.103c0-1.417 0-1.41 1.462-1.351.264.01.36.077.358.35a693.59 693.59 0 0 0 0 6.052c.001.276-.11.34-.368.352-1.453.072-1.447.078-1.456-1.372-.002-.407.177-.934-.07-1.19-.274-.282-.817-.084-1.241-.09-.444-.006-1.018-.19-1.297.078-.283.27-.084.843-.088 1.281-.012 1.305-.004 1.287-1.32 1.298-.408.004-.486-.134-.477-.5.024-.975.008-1.95.008-2.924z"/></g><g><path fill="#fff" d="M19.714 33.583c0-.99-.001-1.982.002-2.973 0-.158-.058-.366.225-.357 1.204.04 2.417-.116 3.613.085 1.076.182 1.731.863 1.871 1.845.155 1.088-.28 2.02-1.234 2.479-.394.19-.34.334-.097.578.286.288.644.414 1.032.381.37-.03.45.125.41.438-.012.1-.001.204-.001.307 0 .717-.096.796-.844.712-1.099-.125-1.815-.75-2.279-1.705-.165-.34-.692-.535-1.01-.386-.153.071-.105.199-.107.307-.006.41-.003.82-.003 1.23 0 .103.041.253-.011.3-.389.352-.868.102-1.304.162-.3.042-.262-.193-.262-.378v-3.025z"/></g><g><path fill="#fff" d="M18.589 33.568c.024.99-.044 1.965-.82 2.705-.96.916-2.124 1-3.32.622-1.117-.353-1.661-1.207-1.781-2.341a9.76 9.76 0 0 1-.004-1.942c.18-1.926 1.788-2.747 3.397-2.513 1.644.24 2.49 1.25 2.527 2.906.004.187 0 .375 0 .563z"/></g><g><path fill="#fff" d="M54.666 32.563c0 .581.018 1.163-.004 1.743-.064 1.71-1.176 2.762-2.925 2.789-1.71.026-2.927-1.052-2.993-2.727-.05-1.263-.007-2.53-.017-3.795-.002-.237.064-.315.316-.328 1.265-.066 1.265-.075 1.265 1.184 0 .889-.016 1.778.005 2.666.024 1.009.538 1.591 1.366 1.602.842.01 1.39-.557 1.403-1.495.016-1.18.018-2.36-.003-3.538-.007-.347.109-.42.436-.42 1.157.002 1.157-.01 1.157 1.14v1.18z"/></g><g><path fill="#fff" d="M35.693 33.644c0-1.008.01-2.016-.006-3.023-.005-.29.08-.38.376-.378 1.517.014 3.034.01 4.55.002.252-.001.358.047.368.332.033 1.016.046 1.015-.965 1.016-.724 0-1.448.01-2.172-.006-.271-.006-.347.089-.361.35-.062 1.177-.07 1.177 1.13 1.177.207 0 .417.023.62-.005.462-.062.605.095.607.574.002.496-.127.664-.63.612-.443-.045-.895.006-1.343-.014-.3-.014-.389.105-.383.387.014.649-.007 1.299.01 1.947.007.292-.101.373-.389.383-1.413.05-1.412.059-1.412-1.356v-1.998z"/></g><g><path fill="#fff" d="M28.977 30.272c.794 0 1.588.01 2.382-.006.295-.006.376.092.383.38.022 1.034.033 1.033-1.012 1.033-.958 0-.958 0-.958.968 0 1.317-.01 2.633.007 3.95.004.327-.079.436-.427.436-1.19 0-1.19.016-1.19-1.17 0-1.215-.026-2.43.014-3.642.015-.478-.146-.598-.583-.547-.272.031-.556-.027-.826.012-.487.071-.573-.145-.558-.574.03-.84.007-.84.852-.84h1.916z"/></g><g><path fill="#fff" d="M58.44 30.272c.793 0 1.586.01 2.378-.006.272-.005.346.084.355.35.037 1.064.047 1.063-1.023 1.063-.95 0-.95 0-.95.924 0 1.332-.01 2.664.008 3.996.004.327-.077.435-.425.434-1.163-.002-1.163.013-1.163-1.134 0-1.264-.01-2.528.007-3.792.004-.327-.08-.46-.431-.435-.412.03-.827-.001-1.24.01-.224.007-.286-.081-.304-.297-.094-1.114-.1-1.113 1.03-1.113h1.758z"/></g><g><path fill="#fff" d="M34.544 33.667c0 .992-.014 1.984.009 2.975.007.327-.099.422-.41.39-.474-.049-1.11.204-1.383-.105-.234-.264-.077-.877-.079-1.335-.004-1.625.007-3.25-.008-4.874-.003-.33.039-.512.435-.469.458.05 1.06-.184 1.345.088.288.275.078.873.088 1.33.014.666.003 1.333.003 2z"/></g><g><path fill="#fff" d="M63.962 33.668c0 .991-.015 1.983.008 2.975.008.327-.1.421-.41.39-.474-.05-1.11.203-1.382-.106-.235-.265-.078-.877-.08-1.336-.003-1.624.008-3.249-.008-4.873-.003-.33.04-.512.435-.469.459.05 1.062-.184 1.346.089.287.274.077.873.087 1.329.015.666.004 1.334.004 2z"/></g><g><path fill="#3f9f4f" d="M44.432 31.603c.258.014.52.003.772.046.575.098.841.43.827.99-.014.542-.27.858-.837.922-.46.053-.928.028-1.392.044-.208.007-.267-.098-.262-.284.006-.273.001-.546.001-.819 0-.887 0-.887.891-.9z"/></g><g><path fill="#3f9f4f" d="M21.292 32.598c0-.984 0-.986 1.003-.982.224 0 .451-.004.67.033.584.1.826.406.814.994-.01.554-.257.838-.831.925a4.258 4.258 0 0 1-.619.035c-1.037.005-1.037.003-1.037-1.005z"/></g><g><path fill="#3e9e4e" d="M14.252 33.585c-.002-.39-.065-.783.062-1.167.216-.65.673-.981 1.348-.96.652.022 1.132.41 1.263 1.069a5.53 5.53 0 0 1 .01 2.035c-.127.732-.637 1.145-1.36 1.134-.703-.01-1.22-.461-1.316-1.192-.04-.301-.007-.612-.007-.92z"/></g></g></g></svg>